<svg version="1.1" id="Layer_1" xmlns="http://www.w3.org/2000/svg" xmlns:xlink="http://www.w3.org/1999/xlink" x="0px" y="0px"
	 width="100%" viewBox="0 0 400 300" enable-background="new 0 0 400 300" xml:space="preserve">
<path fill="none" opacity="1.000000" stroke="#000000" stroke-linecap="round" stroke-linejoin="round" stroke-width="3.000000"
	d="
M196.500000,152.500000 
	C186.914719,147.886154 178.172852,141.822693 169.007385,136.487320 
	C165.129745,134.230103 161.365799,131.777573 157.488434,129.519852 
	C154.958160,128.046509 152.290985,127.177689 149.500000,129.000000 
"/>
<path fill="none" opacity="1.000000" stroke="#000000" stroke-linecap="round" stroke-linejoin="round" stroke-width="7.000000"
	d="
M251.000000,176.000000 
	C238.529709,163.805557 222.528076,157.035110 208.010971,147.982422 
	C205.208221,146.234665 202.363785,144.731216 199.000000,144.500000 
"/>
<path fill="none" opacity="1.000000" stroke="#000000" stroke-linecap="round" stroke-linejoin="round" stroke-width="3.000000"
	d="
M185.500000,150.500000 
	C179.000000,146.833328 172.343140,143.413071 166.056625,139.411041 
	C162.045273,136.857391 158.457764,136.304703 154.500000,139.000000 
"/>
<path fill="none" opacity="1.000000" stroke="#000000" stroke-linecap="round" stroke-linejoin="round" stroke-width="2.000000"
	d="
M280.500000,106.500000 
	C275.975220,96.762321 269.565186,94.906792 261.500000,101.000015 
	C258.077911,103.585388 257.736786,106.685074 260.498688,110.001083 
	C262.315247,112.182060 264.663513,113.816093 266.110626,116.438972 
	C267.150574,118.323906 269.854980,116.130928 271.500000,117.500000 
"/>
<path fill="none" opacity="1.000000" stroke="#000000" stroke-linecap="round" stroke-linejoin="round" stroke-width="4.000000"
	d="
M196.000000,140.000000 
	C196.768845,142.914917 198.905457,145.108063 199.296005,148.465576 
	C199.656342,151.563416 203.836517,152.675461 206.419250,154.607910 
	C210.011063,157.295364 215.186417,158.083435 217.000000,163.000000 
"/>
<path fill="none" opacity="1.000000" stroke="#000000" stroke-linecap="round" stroke-linejoin="round" stroke-width="2.000000"
	d="
M252.500000,143.500000 
	C250.689575,151.098022 257.249084,152.154892 261.504639,154.993057 
	C264.248077,156.822784 267.534332,158.498581 264.457977,162.467422 
	C263.012421,164.332382 265.232239,164.968460 265.636597,165.358353 
	C266.662537,166.347626 267.937134,167.062851 268.500000,168.500000 
"/>
<path fill="none" opacity="1.000000" stroke="#000000" stroke-linecap="round" stroke-linejoin="round" stroke-width="4.000000"
	d="
M124.500000,111.500000 
	C127.934448,113.478668 131.557846,115.404099 133.448471,119.026894 
	C137.825577,127.414223 143.681519,134.028564 151.761414,139.361481 
	C155.139862,141.591354 159.667282,143.082565 162.000000,147.000000 
"/>
<path fill="none" opacity="1.000000" stroke="#000000" stroke-linecap="round" stroke-linejoin="round" stroke-width="3.000000"
	d="
M212.500000,175.500000 
	C219.397186,178.893936 225.409882,184.243073 233.500000,185.000000 
"/>
<path fill="none" opacity="1.000000" stroke="#000000" stroke-linecap="round" stroke-linejoin="round" stroke-width="3.000000"
	d="
M260.500000,209.000015 
	C256.833344,207.166672 253.109955,205.436859 249.517044,203.468903 
	C246.358917,201.739105 243.310196,200.439575 240.000000,203.000000 
"/>
<path fill="none" opacity="1.000000" stroke="#000000" stroke-linecap="round" stroke-linejoin="round" stroke-width="2.000000"
	d="
M254.500000,77.500000 
	C259.666656,84.166664 264.833344,90.833336 270.000000,97.500000 
"/>
<path fill="none" opacity="1.000000" stroke="#000000" stroke-linecap="round" stroke-linejoin="round" stroke-width="7.000000"
	d="
M211.500000,162.500000 
	C216.559860,162.959122 220.670319,165.514969 225.144516,167.704697 
	C230.675247,170.411514 231.763138,176.107697 235.751266,179.770813 
	C238.966599,182.724121 233.081406,190.114594 227.999481,190.032242 
	C222.684921,189.946106 217.939423,188.269257 213.500000,185.500000 
"/>
<path fill="none" opacity="1.000000" stroke="#000000" stroke-linecap="round" stroke-linejoin="round" stroke-width="3.000000"
	d="
M277.500000,155.500000 
	C273.500000,153.166672 269.498962,150.835129 265.500488,148.499146 
	C263.786591,147.497849 262.019592,146.808868 260.000000,147.500000 
"/>
<path fill="none" opacity="1.000000" stroke="#000000" stroke-linecap="round" stroke-linejoin="round" stroke-width="3.000000"
	d="
M255.500000,144.000000 
	C260.834900,151.047882 268.366302,155.093826 276.000000,159.000000 
"/>
<path fill="none" opacity="1.000000" stroke="#000000" stroke-linecap="round" stroke-linejoin="round" stroke-width="2.000000"
	d="
M212.500000,129.500000 
	C215.203430,129.926483 217.035416,132.045319 219.429901,133.151718 
	C223.286606,134.933746 223.573975,138.678391 222.500000,142.500000 
"/>
<path fill="none" opacity="1.000000" stroke="#000000" stroke-linecap="round" stroke-linejoin="round" stroke-width="13.000000"
	d="
M232.500000,190.000000 
	C232.083878,192.083191 232.892899,194.067886 234.080444,195.429855 
	C236.694016,198.427322 239.073013,201.773605 236.835861,205.398697 
	C234.651825,208.937714 230.732925,211.147156 226.491745,211.956787 
	C219.832062,213.228088 218.049789,211.906937 216.250000,205.000000 
"/>
<path fill="none" opacity="1.000000" stroke="#000000" stroke-linecap="round" stroke-linejoin="round" stroke-width="3.000000"
	d="
M246.000000,208.500000 
	C246.087234,211.107635 247.966415,211.979004 249.967407,213.060318 
	C253.582565,215.013885 257.000000,217.333328 260.500000,219.500000 
"/>
<path fill="none" opacity="1.000000" stroke="#000000" stroke-linecap="round" stroke-linejoin="round" stroke-width="6.000000"
	d="
M239.500000,212.000000 
	C242.685120,214.796432 245.696609,217.684662 250.498978,217.708328 
	C251.511978,217.713318 253.990005,218.402222 254.500000,220.500000 
"/>
<path fill="none" opacity="1.000000" stroke="#000000" stroke-linecap="round" stroke-linejoin="round" stroke-width="11.000000"
	d="
M191.500000,129.500000 
	C194.085922,130.290375 193.914169,132.416733 194.030243,134.498322 
	C194.124619,136.191299 193.281784,138.110306 195.433701,140.016312 
	C202.010300,132.411270 208.560669,136.357559 215.561066,139.878586 
	C221.562958,142.897385 227.542374,146.289917 234.495544,147.041260 
	C238.134628,147.434509 241.191605,148.737976 243.105621,152.445480 
	C244.645432,155.428146 248.531357,155.878632 251.000000,158.000000 
"/>
<path fill="none" opacity="1.000000" stroke="#000000" stroke-linecap="round" stroke-linejoin="round" stroke-width="3.000000"
	d="
M177.000000,150.000000 
	C174.166672,148.500000 171.297577,147.062943 168.511124,145.480423 
	C166.211578,144.174438 163.926239,143.866089 161.500000,145.000000 
"/>
<path fill="none" opacity="1.000000" stroke="#000000" stroke-linecap="round" stroke-linejoin="round" stroke-width="5.000000"
	d="
M212.500000,171.000000 
	C214.817169,170.847824 217.195435,170.973114 218.964706,172.539856 
	C222.629395,175.785065 226.827469,176.639969 231.500000,176.000000 
"/>
<path fill="none" opacity="1.000000" stroke="#000000" stroke-linecap="round" stroke-linejoin="round" stroke-width="3.000000"
	d="
M230.000000,147.500000 
	C230.236343,150.645691 231.754669,153.028214 234.509995,154.481049 
	C240.493286,157.635925 244.512375,163.576462 250.981308,166.048904 
	C251.293472,166.168213 251.333328,167.000000 251.500000,167.500000 
"/>
<path fill="none" opacity="1.000000" stroke="#000000" stroke-linecap="round" stroke-linejoin="round" stroke-width="3.000000"
	d="
M237.500000,206.000000 
	C246.059570,207.103699 254.016724,209.780411 261.000000,215.000000 
"/>
<path fill="none" opacity="1.000000" stroke="#000000" stroke-linecap="round" stroke-linejoin="round" stroke-width="3.000000"
	d="
M119.500000,114.500000 
	C124.438522,116.432014 127.914574,121.626465 134.000000,121.000000 
"/>
<path fill="none" opacity="1.000000" stroke="#000000" stroke-linecap="round" stroke-linejoin="round" stroke-width="3.000000"
	d="
M213.500000,180.500000 
	C215.067459,182.807037 217.846741,183.144913 219.999680,184.500519 
	C221.839981,185.659271 224.179306,186.320694 224.500000,189.000000 
"/>
<path fill="none" opacity="1.000000" stroke="#000000" stroke-linecap="round" stroke-linejoin="round" stroke-width="9.000000"
	d="
M211.500000,196.500000 
	C212.166672,196.833328 212.900253,197.546509 213.489883,197.442612 
	C221.436035,196.042679 226.277237,200.880203 231.000000,206.000000 
"/>
<path fill="none" opacity="1.000000" stroke="#000000" stroke-linecap="round" stroke-linejoin="round" stroke-width="3.000000"
	d="
M120.500000,143.500000 
	C122.144958,145.681107 124.581604,146.639252 127.010559,147.469086 
	C131.505356,149.004684 133.026062,148.149323 134.491989,143.497482 
	C135.422638,140.544235 138.237015,139.226196 140.000000,137.000000 
"/>
<path fill="none" opacity="1.000000" stroke="#000000" stroke-linecap="round" stroke-linejoin="round" stroke-width="3.000000"
	d="
M123.500000,206.500000 
	C127.716599,207.646835 131.073669,210.856522 135.500000,211.500000 
"/>
<path fill="none" opacity="1.000000" stroke="#000000" stroke-linecap="round" stroke-linejoin="round" stroke-width="2.000000"
	d="
M241.500000,158.000000 
	C246.147461,157.871765 249.137909,161.057526 252.500000,163.500000 
"/>
<path fill="none" opacity="1.000000" stroke="#000000" stroke-linecap="round" stroke-linejoin="round" stroke-width="5.000000"
	d="
M123.000000,123.500000 
	C125.731529,123.902206 126.330872,126.858810 128.479736,128.036972 
	C131.635223,129.767014 134.820465,128.577805 138.000000,128.500000 
"/>
<path fill="none" opacity="1.000000" stroke="#000000" stroke-linecap="round" stroke-linejoin="round" stroke-width="3.000000"
	d="
M253.500000,154.500000 
	C249.858139,153.539047 247.447174,149.346985 243.000000,150.500000 
"/>
<path fill="none" opacity="1.000000" stroke="#000000" stroke-linecap="round" stroke-linejoin="round" stroke-width="3.000000"
	d="
M118.000000,159.500000 
	C120.963509,161.763367 123.893921,161.920029 127.556938,160.666367 
	C130.956680,159.502808 134.833328,159.053833 138.500000,160.500000 
"/>
<path fill="none" opacity="1.000000" stroke="#000000" stroke-linecap="round" stroke-linejoin="round" stroke-width="3.000000"
	d="
M120.000000,209.000000 
	C122.569092,211.512222 127.617577,210.782135 128.500000,215.500000 
"/>
<path fill="none" opacity="1.000000" stroke="#000000" stroke-linecap="round" stroke-linejoin="round" stroke-width="13.000000"
	d="
M243.000000,137.000000 
	C244.666672,138.333328 246.236816,139.816833 248.022675,140.964722 
	C250.685699,142.676453 253.302094,144.105927 256.570435,141.591553 
	C258.519501,140.092072 261.150208,139.459061 263.505249,138.513062 
	C265.358673,137.768555 266.342438,136.568192 266.000000,134.500000 
"/>
<path fill="none" opacity="1.000000" stroke="#000000" stroke-linecap="round" stroke-linejoin="round" stroke-width="3.000000"
	d="
M244.500000,192.500000 
	C244.346848,197.344421 248.385406,197.674698 251.500000,199.000000 
"/>
<path fill="none" opacity="1.000000" stroke="#000000" stroke-linecap="round" stroke-linejoin="round" stroke-width="3.000000"
	d="
M276.000000,134.000000 
	C272.833344,131.848541 269.666656,131.857208 266.427094,134.042267 
	C263.716309,130.341599 258.583954,132.424438 255.500000,129.500000 
"/>
<path fill="none" opacity="1.000000" stroke="#000000" stroke-linecap="round" stroke-linejoin="round" stroke-width="9.000000"
	d="
M235.500000,186.500000 
	C240.493942,190.412659 245.857010,193.184387 252.500000,192.000000 
"/>
<path fill="none" opacity="1.000000" stroke="#000000" stroke-linecap="round" stroke-linejoin="round" stroke-width="3.000000"
	d="
M275.500000,163.500000 
	C272.370972,162.654480 269.536530,160.409851 266.000000,161.500000 
"/>
<path fill="none" opacity="1.000000" stroke="#000000" stroke-linecap="round" stroke-linejoin="round" stroke-width="3.000000"
	d="
M182.500000,129.000000 
	C186.550079,130.142654 187.447281,133.452911 188.000000,137.000000 
"/>
<path fill="none" opacity="1.000000" stroke="#000000" stroke-linecap="round" stroke-linejoin="round" stroke-width="3.000000"
	d="
M139.000000,213.000000 
	C138.958694,217.413574 143.374390,217.964417 145.500000,220.500000 
"/>
<path fill="none" opacity="1.000000" stroke="#000000" stroke-linecap="round" stroke-linejoin="round" stroke-width="2.000000"
	d="
M213.000000,190.000000 
	C216.060272,191.503555 219.474319,192.678604 219.500000,197.000000 
"/>
<path fill="none" opacity="1.000000" stroke="#000000" stroke-linecap="round" stroke-linejoin="round" stroke-width="3.000000"
	d="
M164.500000,205.500000 
	C168.360641,206.652100 168.519241,209.778625 168.500000,213.000000 
"/>
<path fill="none" opacity="1.000000" stroke="#000000" stroke-linecap="round" stroke-linejoin="round" stroke-width="11.000000"
	d="
M130.500000,205.500000 
	C133.668762,206.831528 136.281677,208.639511 136.452606,212.738663 
	C140.657150,211.742783 144.701370,211.284149 148.561462,213.909622 
	C149.599472,214.615616 151.522751,213.998749 152.453552,212.958435 
	C155.097061,210.003860 158.218811,211.295074 160.976303,212.082932 
	C168.544983,214.245361 175.978745,213.500259 183.514832,212.078644 
	C185.415756,211.720047 187.645248,211.934570 189.464569,212.597275 
	C191.940079,213.499008 194.166672,213.288879 196.500000,212.500000 
"/>
<path fill="none" opacity="1.000000" stroke="#000000" stroke-linecap="round" stroke-linejoin="round" stroke-width="3.000000"
	d="
M275.500000,128.500000 
	C272.640808,127.943260 270.271667,125.303741 267.000000,126.500000 
"/>
<path fill="none" opacity="1.000000" stroke="#000000" stroke-linecap="round" stroke-linejoin="round" stroke-width="3.000000"
	d="
M208.750000,208.500000 
	C209.805069,213.172150 212.241669,217.067184 215.500000,220.500000 
"/>
<path fill="none" opacity="1.000000" stroke="#000000" stroke-linecap="round" stroke-linejoin="round" stroke-width="3.000000"
	d="
M132.500000,153.000000 
	C135.166672,154.166656 137.833328,155.333328 140.500000,156.500000 
"/>
<path fill="none" opacity="1.000000" stroke="#000000" stroke-linecap="round" stroke-linejoin="round" stroke-width="3.000000"
	d="
M220.500000,212.500000 
	C220.892609,215.093643 220.135193,218.180161 223.500000,219.500000 
"/>
<path fill="none" opacity="1.000000" stroke="#000000" stroke-linecap="round" stroke-linejoin="round" stroke-width="2.000000"
	d="
M195.500015,207.500000 
	C196.333344,210.166656 197.417435,212.786224 197.929672,215.513214 
	C198.444580,218.254471 199.815796,219.498886 202.500000,219.500000 
"/>
<path fill="none" opacity="1.000000" stroke="#000000" stroke-linecap="round" stroke-linejoin="round" stroke-width="3.000000"
	d="
M277.500000,139.000000 
	C274.650818,137.873184 272.063049,138.837708 269.500000,140.000000 
"/>
<path fill="none" opacity="1.000000" stroke="#000000" stroke-linecap="round" stroke-linejoin="round" stroke-width="3.000000"
	d="
M235.500000,129.000000 
	C239.569122,129.851212 240.081284,133.785110 241.955856,136.763306 
	C244.537247,135.209961 244.637070,132.904327 244.500000,130.500000 
"/>
<path fill="none" opacity="1.000000" stroke="#000000" stroke-linecap="round" stroke-linejoin="round" stroke-width="2.000000"
	d="
M173.500000,205.500000 
	C175.522705,207.408554 176.285065,209.767242 176.000000,212.500000 
"/>
<path fill="none" opacity="1.000000" stroke="#000000" stroke-linecap="round" stroke-linejoin="round" stroke-width="3.000000"
	d="
M156.000000,144.000000 
	C156.198227,146.410934 155.139404,149.305359 158.500000,150.500000 
"/>
<path fill="none" opacity="1.000000" stroke="#000000" stroke-linecap="round" stroke-linejoin="round" stroke-width="6.000000"
	d="
M165.000000,130.000000 
	C171.997162,132.853943 178.858704,136.067215 186.493103,137.053391 
	C189.036774,137.381958 191.500000,138.333344 194.000000,139.000000 
"/>
<path fill="none" opacity="1.000000" stroke="#000000" stroke-linecap="round" stroke-linejoin="round" stroke-width="3.000000"
	d="
M199.000000,128.500000 
	C200.075058,130.891098 201.065094,133.304871 201.000000,136.000000 
"/>
<path fill="none" opacity="1.000000" stroke="#000000" stroke-linecap="round" stroke-linejoin="round" stroke-width="3.000000"
	d="
M125.000000,191.500000 
	C123.708717,194.565826 126.547958,198.066452 124.000000,201.000000 
"/>
<path fill="none" opacity="1.000000" stroke="#000000" stroke-linecap="round" stroke-linejoin="round" stroke-width="3.000000"
	d="
M154.000000,215.000000 
	C155.134277,217.991241 158.572571,217.654434 160.500000,219.500000 
"/>
<path fill="none" opacity="1.000000" stroke="#000000" stroke-linecap="round" stroke-linejoin="round" stroke-width="2.000000"
	d="
M278.500000,143.500000 
	C276.050018,142.993271 274.161194,140.915329 271.500000,141.000000 
"/>
<path fill="none" opacity="1.000000" stroke="#000000" stroke-linecap="round" stroke-linejoin="round" stroke-width="3.000000"
	d="
M119.500000,156.500000 
	C121.733635,157.612473 123.937469,158.808411 126.500000,159.000000 
"/>
<path fill="none" opacity="1.000000" stroke="#000000" stroke-linecap="round" stroke-linejoin="round" stroke-width="3.000000"
	d="
M176.000000,129.000000 
	C178.554062,130.186188 180.632309,131.689575 180.000000,135.000000 
"/>
<path fill="none" opacity="1.000000" stroke="#000000" stroke-linecap="round" stroke-linejoin="round" stroke-width="3.000000"
	d="
M119.500000,149.500000 
	C127.619370,152.586105 130.198074,158.046875 128.000000,167.500000 
"/>
<path fill="none" opacity="1.000000" stroke="#000000" stroke-linecap="round" stroke-linejoin="round" stroke-width="3.000000"
	d="
M255.500000,133.500000 
	C257.733643,134.612473 259.937469,135.808411 262.500000,136.000000 
"/>
<path fill="none" opacity="1.000000" stroke="#000000" stroke-linecap="round" stroke-linejoin="round" stroke-width="3.000000"
	d="
M251.500000,133.500000 
	C249.265945,132.790588 247.059952,132.445938 245.000000,134.000000 
"/>
<path fill="none" opacity="1.000000" stroke="#000000" stroke-linecap="round" stroke-linejoin="round" stroke-width="3.000000"
	d="
M266.000000,126.000000 
	C263.833344,125.333336 261.666656,124.666664 259.500000,124.000000 
"/>
<path fill="none" opacity="1.000000" stroke="#000000" stroke-linecap="round" stroke-linejoin="round" stroke-width="2.000000"
	d="
M272.000000,146.000000 
	C272.593414,149.015472 275.182739,149.591476 277.500000,150.500000 
"/>
<path fill="none" opacity="1.000000" stroke="#000000" stroke-linecap="round" stroke-linejoin="round" stroke-width="3.000000"
	d="
M120.500000,126.500000 
	C122.257690,129.574402 124.441414,127.536324 126.500000,127.000000 
"/>
<path fill="none" opacity="1.000000" stroke="#000000" stroke-linecap="round" stroke-linejoin="round" stroke-width="4.000000"
	d="
M275.500000,168.500000 
	C272.597961,167.744690 269.777222,167.463959 267.502136,170.001923 
	C263.954132,173.959915 260.810303,170.127457 257.500000,169.500000 
"/>
<path fill="none" opacity="1.000000" stroke="#000000" stroke-linecap="round" stroke-linejoin="round" stroke-width="3.000000"
	d="
M159.500000,206.500000 
	C162.348221,207.417480 161.969589,209.801697 162.000000,212.000000 
"/>
<path fill="none" opacity="1.000000" stroke="#000000" stroke-linecap="round" stroke-linejoin="round" stroke-width="3.000000"
	d="
M251.500000,171.500000 
	C249.291046,170.970779 247.810715,168.073517 245.000000,169.500000 
"/>
<path fill="none" opacity="1.000000" stroke="#000000" stroke-linecap="round" stroke-linejoin="round" stroke-width="3.000000"
	d="
M205.000000,128.500000 
	C205.590118,130.634094 206.743362,132.724869 205.500000,135.000000 
"/>
<path fill="none" opacity="1.000000" stroke="#000000" stroke-linecap="round" stroke-linejoin="round" stroke-width="3.000000"
	d="
M265.000000,121.000000 
	C268.797394,118.078331 270.984589,122.402710 274.000000,123.000000 
"/>
<path fill="none" opacity="1.000000" stroke="#000000" stroke-linecap="round" stroke-linejoin="round" stroke-width="3.000000"
	d="
M120.500000,175.500000 
	C122.500000,176.000000 124.500000,176.500000 126.500000,177.000000 
"/>
<path fill="none" opacity="1.000000" stroke="#000000" stroke-linecap="round" stroke-linejoin="round" stroke-width="3.000000"
	d="
M236.000000,216.000000 
	C237.014481,218.453445 239.353882,218.824860 241.500000,219.500000 
"/>
<path fill="none" opacity="1.000000" stroke="#000000" stroke-linecap="round" stroke-linejoin="round" stroke-width="3.000000"
	d="
M213.500000,108.500000 
	C214.637375,110.864433 218.074615,111.358353 218.838257,110.784691 
	C221.629715,108.687759 223.295792,111.821350 225.500000,111.500000 
"/>
<path fill="none" opacity="1.000000" stroke="#000000" stroke-linecap="round" stroke-linejoin="round" stroke-width="3.000000"
	d="
M163.500000,147.500000 
	C165.999969,147.500076 167.211716,150.076584 169.500000,150.500000 
"/>
<path fill="none" opacity="1.000000" stroke="#000000" stroke-linecap="round" stroke-linejoin="round" stroke-width="6.000000"
	d="
M135.500000,213.000000 
	C130.682251,216.316559 125.273712,217.742554 119.500000,218.000000 
"/>
<path fill="none" opacity="1.000000" stroke="#000000" stroke-linecap="round" stroke-linejoin="round" stroke-width="3.000000"
	d="
M131.000000,164.000000 
	C132.823792,165.181656 135.224640,165.456512 136.500000,167.500000 
"/>
<path fill="none" opacity="1.000000" stroke="#000000" stroke-linecap="round" stroke-linejoin="round" stroke-width="3.000000"
	d="
M259.500000,119.000000 
	C267.126160,122.289909 267.253784,122.587646 265.500000,133.000000 
"/>
<path fill="none" opacity="1.000000" stroke="#000000" stroke-linecap="round" stroke-linejoin="round" stroke-width="3.000000"
	d="
M120.500000,139.500000 
	C122.500000,140.788742 124.500000,140.255600 126.500000,139.500000 
"/>
<path fill="none" opacity="1.000000" stroke="#000000" stroke-linecap="round" stroke-linejoin="round" stroke-width="3.000000"
	d="
M147.500000,205.500000 
	C148.849289,207.387421 150.832977,208.111771 153.000000,208.500000 
"/>
<path fill="none" opacity="1.000000" stroke="#000000" stroke-linecap="round" stroke-linejoin="round" stroke-width="3.000000"
	d="
M266.000000,137.500000 
	C266.833344,138.166672 267.835297,138.702103 268.472717,139.521240 
	C272.710632,144.967209 272.685272,144.986938 277.000000,147.000000 
"/>
<path fill="none" opacity="1.000000" stroke="#000000" stroke-linecap="round" stroke-linejoin="round" stroke-width="3.000000"
	d="
M118.500000,212.500000 
	C120.500000,213.666656 122.500000,214.833328 124.500000,216.000000 
"/>
<path fill="none" opacity="1.000000" stroke="#000000" stroke-linecap="round" stroke-linejoin="round" stroke-width="3.000000"
	d="
M256.500000,126.500000 
	C258.268341,127.768799 260.899231,127.682167 262.000000,130.000000 
"/>
<path fill="none" opacity="1.000000" stroke="#000000" stroke-linecap="round" stroke-linejoin="round" stroke-width="3.000000"
	d="
M120.500000,152.500000 
	C121.503357,155.211044 123.838318,153.483383 125.500000,154.000000 
"/>
<path fill="none" opacity="1.000000" stroke="#000000" stroke-linecap="round" stroke-linejoin="round" stroke-width="3.000000"
	d="
M226.500000,105.500000 
	C224.762344,104.280830 222.842010,105.071205 221.000000,105.000000 
"/>
<path fill="none" opacity="1.000000" stroke="#000000" stroke-linecap="round" stroke-linejoin="round" stroke-width="3.000000"
	d="
M133.000000,216.000000 
	C133.233429,218.795120 135.579056,218.874542 137.500000,219.500000 
"/>
<path fill="none" opacity="1.000000" stroke="#000000" stroke-linecap="round" stroke-linejoin="round" stroke-width="4.000000"
	d="
M122.000000,166.000000 
	C123.350845,166.453293 124.338341,167.839859 126.001251,167.506241 
	C127.832443,167.138840 128.943359,168.279938 129.994110,169.521896 
	C129.468460,171.782745 126.656708,173.188477 127.500000,176.000000 
"/>
<path fill="none" opacity="1.000000" stroke="#000000" stroke-linecap="round" stroke-linejoin="round" stroke-width="3.000000"
	d="
M130.500000,169.500000 
	C132.464966,169.517334 134.511810,169.234451 136.000000,171.000000 
"/>
<path fill="none" opacity="1.000000" stroke="#000000" stroke-linecap="round" stroke-linejoin="round" stroke-width="3.000000"
	d="
M214.500000,105.000000 
	C216.225113,106.357040 218.284561,104.036476 220.000000,105.500000 
"/>
<path fill="none" opacity="1.000000" stroke="#000000" stroke-linecap="round" stroke-linejoin="round" stroke-width="3.000000"
	d="
M121.500000,171.000000 
	C123.333336,171.666656 125.166672,172.333328 127.000000,173.000000 
"/>
<path fill="none" opacity="1.000000" stroke="#000000" stroke-linecap="round" stroke-linejoin="round" stroke-width="3.000000"
	d="
M263.500000,163.000000 
	C260.833344,161.221344 258.166656,164.383469 255.500000,163.000000 
"/>
<path fill="none" opacity="1.000000" stroke="#000000" stroke-linecap="round" stroke-linejoin="round" stroke-width="3.000000"
	d="
M131.500000,182.500000 
	C130.748505,180.149200 128.779037,180.472595 127.000427,180.517014 
	C125.082237,180.564896 123.198746,180.573547 121.500000,179.500000 
"/>
<path fill="none" opacity="1.000000" stroke="#000000" stroke-linecap="round" stroke-linejoin="round" stroke-width="3.000000"
	d="
M255.500000,156.500000 
	C258.652466,157.014191 259.392975,159.940353 261.000000,162.000000 
"/>
<path fill="none" opacity="1.000000" stroke="#000000" stroke-linecap="round" stroke-linejoin="round" stroke-width="3.000000"
	d="
M135.000000,145.500000 
	C138.914841,149.339020 144.559158,147.797455 149.000000,150.000000 
"/>
<path fill="none" opacity="1.000000" stroke="#000000" stroke-linecap="round" stroke-linejoin="round" stroke-width="3.000000"
	d="
M264.500000,172.500000 
	C264.242920,174.744171 267.252106,174.188660 267.554810,176.176697 
	C265.700562,177.302246 263.760559,178.042221 261.500000,177.500000 
"/>
<path fill="none" opacity="1.000000" stroke="#000000" stroke-linecap="round" stroke-linejoin="round" stroke-width="3.000000"
	d="
M226.000000,117.000000 
	C224.143539,116.384384 222.446030,113.613464 220.730042,117.891716 
	C219.868851,120.038750 216.125534,120.216415 213.500000,118.500000 
"/>
<path fill="none" opacity="1.000000" stroke="#000000" stroke-linecap="round" stroke-linejoin="round" stroke-width="2.000000"
	d="
M215.500000,126.500000 
	C216.853622,126.945892 217.740570,128.636246 219.500000,128.000000 
"/>
<path fill="none" opacity="1.000000" stroke="#000000" stroke-linecap="round" stroke-linejoin="round" stroke-width="3.000000"
	d="
M220.500000,102.500000 
	C220.500000,103.833336 220.500000,105.166664 220.499954,106.500153 
	C222.030609,107.453529 223.663239,108.066978 225.500000,108.000000 
"/>
<path fill="none" opacity="1.000000" stroke="#000000" stroke-linecap="round" stroke-linejoin="round" stroke-width="2.000000"
	d="
M120.500000,119.500000 
	C120.136864,121.007454 124.623222,121.302528 121.500000,123.500000 
"/>
<path fill="none" opacity="1.000000" stroke="#000000" stroke-linecap="round" stroke-linejoin="round" stroke-width="2.000000"
	d="
M126.000000,107.000000 
	C127.166847,107.833084 128.333694,108.666168 129.499359,109.498451 
	C128.832123,109.998428 128.166061,110.499214 127.500000,111.000000 
"/>
<path fill="none" opacity="1.000000" stroke="#000000" stroke-linecap="round" stroke-linejoin="round" stroke-width="2.000000"
	d="
M144.500000,149.500000 
	C143.779602,151.424713 146.812927,150.846939 146.500000,152.500000 
"/>
<path fill="none" opacity="1.000000" stroke="#000000" stroke-linecap="round" stroke-linejoin="round" stroke-width="2.000000"
	d="
M249.000000,183.999985 
	C250.166672,184.166656 251.333328,184.333313 252.500000,184.499985 
"/>
<path fill="none" opacity="1.000000" stroke="#000000" stroke-linecap="round" stroke-linejoin="round" stroke-width="2.000000"
	d="
M255.500000,159.500000 
	C256.666656,159.666656 257.833344,159.833328 259.000000,160.000000 
"/>
<path fill="none" opacity="1.000000" stroke="#000000" stroke-linecap="round" stroke-linejoin="round" stroke-width="3.000000"
	d="
M217.500000,120.000000 
	C218.500000,122.333328 219.500000,124.666664 220.500000,127.000000 
"/>
</svg>